<svg width="88" height="88" viewBox="0 0 88 88" fill="none" xmlns="http://www.w3.org/2000/svg">
<path d="M83.5 21.0833V52.3333H75.1667V25.25L54.3334 10.6667L33.5 25.25V31.5H25.1667V21.0833L54.3334 0.25L83.5 21.0833ZM60.5834 23.1667H56.4167V27.3333H60.5834V23.1667ZM52.25 23.1667H48.0834V27.3333H52.25V23.1667ZM60.5834 31.5H56.4167V35.6667H60.5834V31.5ZM52.25 31.5H48.0834V35.6667H52.25V31.5ZM75.1667 60.6667H66.8334C66.8334 55.6667 63.7084 51.1667 59.0417 49.4167L33.375 39.8333H0.166687V85.6667H25.1667V79.6667L54.3334 87.75L87.6667 77.3333V73.1667C87.6667 66.25 82.0834 60.6667 75.1667 60.6667ZM8.50002 77.3333V48.1667H16.8334V77.3333H8.50002ZM54.2084 79.0417L25.1667 71V48.1667H31.875L56.125 57.2083C57.5417 57.75 58.5 59.125 58.5 60.6667C58.5 60.6667 50.2084 60.4583 48.9167 60.0417L39 56.75L36.375 64.6667L46.2917 67.9583C48.4167 68.6667 50.625 69.0417 52.875 69.0417H75.1667C76.7917 69.0417 78.25 70 78.9167 71.375L54.2084 79.0417Z" fill="#316499"/>
</svg>
